<svg version="1.1" id="Layer_1" xmlns="http://www.w3.org/2000/svg" xmlns:xlink="http://www.w3.org/1999/xlink" x="0px" y="0px"
	 width="100%" viewBox="0 0 200 200" enable-background="new 0 0 200 200" xml:space="preserve">
<path fill="#9CA3AF" opacity="1.000000" stroke="none" 
	d="
M115.000000,201.000000 
	C105.312439,201.000000 95.624878,201.000000 85.261215,200.681824 
	C83.627586,200.092041 82.682610,199.760040 81.710625,199.557922 
	C67.646439,196.633484 54.842785,190.747360 43.383305,182.240662 
	C37.596870,177.945236 32.499329,172.694611 27.252022,167.705795 
	C16.408510,157.396439 9.511513,144.791046 5.732302,130.360779 
	C4.376156,125.182564 2.589935,120.116982 0.999999,115.000000 
	C1.000000,105.645775 1.000000,96.291542 1.321168,86.276886 
	C5.068454,75.407913 8.494572,65.199379 12.146705,54.741821 
	C13.555545,52.291416 14.738371,50.090031 16.164911,47.666328 
	C18.377579,44.640133 20.346533,41.836250 22.535860,38.880154 
	C23.167469,38.144375 23.578707,37.560814 24.248314,36.799438 
	C25.104992,35.769367 25.703299,34.917107 26.510723,33.872429 
	C27.473553,32.869202 28.227266,32.058388 29.242544,31.089914 
	C30.058346,30.341032 30.612579,29.749809 31.390114,29.030617 
	C32.069889,28.404049 32.526363,27.905455 33.219200,27.257933 
	C33.702892,26.833355 33.950222,26.557705 34.488640,26.139547 
	C36.539249,24.485308 38.298767,22.973577 40.312710,21.286274 
	C40.726826,20.750540 40.886517,20.390377 41.056885,20.135950 
	C41.067566,20.241686 41.279324,20.223415 41.603477,20.159609 
	C43.944344,18.716885 45.961056,17.337969 48.304886,15.836115 
	C56.103230,12.194781 63.574459,8.676385 71.434212,5.087094 
	C76.881828,3.677466 81.940910,2.338733 87.000000,1.000000 
	C94.687576,1.000000 102.375153,1.000000 110.735352,1.212394 
	C112.271980,1.283191 113.135986,1.141595 114.000000,1.000000 
	C114.000000,1.000000 114.500000,1.000000 114.931519,1.311315 
	C117.699081,2.407596 119.980988,3.492910 122.380554,3.925378 
	C132.604904,5.768091 142.436157,8.601739 151.051773,14.661062 
	C155.727127,17.949207 160.295135,21.389994 165.092102,24.970747 
	C165.539825,25.432358 165.807022,25.685146 166.055023,25.888119 
	C166.035828,25.838301 166.135208,25.799276 166.345993,26.008022 
	C167.087204,26.459320 167.617645,26.701872 168.434113,27.101154 
	C170.832169,29.454659 172.944153,31.651430 175.125214,34.136730 
	C175.531815,34.904018 175.869324,35.382782 176.184082,35.901390 
	C176.161316,35.941242 176.081772,35.895458 176.263794,36.081024 
	C176.712753,36.487980 176.979691,36.709373 177.190277,36.908451 
	C177.133926,36.886135 177.181931,36.774826 177.241913,37.084991 
	C177.901108,37.914303 178.500336,38.433449 179.068787,38.966751 
	C179.038025,38.980907 179.050705,38.914368 179.123566,39.195942 
	C179.564209,39.911602 179.931961,40.345684 180.276398,40.875687 
	C180.253067,40.971607 180.060684,40.927258 180.255280,41.141449 
	C180.735703,41.616661 181.021545,41.877686 181.520599,42.376205 
	C190.092987,52.180458 194.377411,63.756271 197.998154,75.653252 
	C199.043640,79.088516 200.001801,82.550346 201.000000,86.000000 
	C201.000000,96.020897 201.000000,106.041786 200.680115,116.729279 
	C197.813889,125.162033 196.033035,133.296356 192.521149,140.598114 
	C188.431244,149.101624 182.826675,156.876648 177.602890,165.096893 
	C176.911575,165.887604 176.496780,166.549240 175.954697,167.464432 
	C175.024185,168.511932 174.220947,169.305862 173.167633,170.234711 
	C172.617706,170.599579 172.317856,170.829529 172.025238,171.028625 
	C172.032501,170.997787 172.086746,171.030533 171.906967,171.203415 
	C171.490143,171.609131 171.258362,171.847107 171.014923,172.063019 
	C170.998016,172.035828 171.059509,172.017944 170.876587,172.235168 
	C170.495834,172.775299 170.298019,173.098221 169.940430,173.656158 
	C168.911377,174.616440 168.042114,175.341721 166.987000,176.084381 
	C166.576904,176.420380 166.352646,176.739029 165.919708,177.327209 
	C162.995743,179.415497 160.329102,181.312302 157.556778,183.039490 
	C145.412766,190.605316 132.725464,196.930664 118.586990,199.904755 
	C117.368454,200.161102 116.194611,200.629898 115.000000,201.000000 
M14.454679,87.223183 
	C14.596950,87.803825 14.739222,88.384468 14.410954,89.290665 
	C14.344270,89.841080 14.277587,90.391495 14.107118,91.629860 
	C14.088539,92.092094 14.069961,92.554329 13.959605,93.722740 
	C14.006808,94.431557 14.054011,95.140366 14.055914,96.523827 
	C14.014274,96.972305 13.972632,97.420792 13.779176,98.766464 
	C13.816691,100.583199 13.854206,102.399933 13.939762,104.851357 
	C13.986410,105.273254 14.033058,105.695152 13.961816,106.930786 
	C14.043773,108.294472 14.125730,109.658157 14.092650,111.868958 
	C15.090749,115.912827 16.088846,119.956703 17.056395,124.778267 
	C20.802965,133.223511 23.758442,142.152435 28.536339,149.967133 
	C32.657104,156.707031 38.126404,163.102829 44.320728,167.968903 
	C51.527737,173.630554 59.951714,177.922348 68.275322,181.917389 
	C73.430466,184.391678 79.381310,185.208176 85.512436,187.028519 
	C86.637894,187.035461 87.763344,187.042419 89.256798,187.472107 
	C89.794930,187.549042 90.333069,187.625977 91.583580,187.835312 
	C92.063560,187.877975 92.543549,187.920654 93.731720,188.053848 
	C94.177933,187.453705 94.989883,186.866211 95.011162,186.251373 
	C95.152069,182.179276 95.123337,178.101303 95.877693,174.068359 
	C96.366982,174.073547 96.856277,174.078735 97.519279,174.056793 
	C97.519279,174.056793 97.676964,173.979004 97.779915,174.897629 
	C97.804443,178.200500 97.673195,181.515030 97.919327,184.801300 
	C98.042107,186.440674 98.855270,188.028351 99.356163,189.639404 
	C100.979454,189.122772 102.602745,188.606140 104.825813,188.053848 
	C105.225861,188.031036 105.625900,188.008240 106.849121,188.163513 
	C108.237923,188.015228 109.626732,187.866943 111.635094,187.762344 
	C112.424934,187.544250 113.214775,187.326157 114.317879,187.715073 
	C118.588356,189.317230 130.426178,186.026306 134.615005,181.873871 
	C146.025589,176.650330 157.249878,170.685364 165.199921,160.936630 
	C171.891968,152.730499 176.715240,143.000412 183.015457,133.544418 
	C184.570282,129.480011 186.456818,125.503029 187.559387,121.319435 
	C188.255325,118.678757 187.779587,115.729309 187.894760,112.303581 
	C187.856735,111.894493 187.818710,111.485413 187.899689,110.386375 
	C187.926086,109.921478 187.952484,109.456573 188.128616,108.238510 
	C188.094254,107.478035 188.059891,106.717552 188.050079,105.379196 
	C188.063263,104.994186 188.076447,104.609184 188.497818,103.543030 
	C189.756241,99.231239 188.161102,97.495392 183.696884,97.871735 
	C180.467606,98.143959 177.203445,98.002571 174.201019,97.252289 
	C177.598053,96.835419 180.987793,96.336693 184.394913,96.032715 
	C186.402786,95.853569 188.554489,96.122887 187.983795,92.302811 
	C187.925476,91.837662 187.867157,91.372505 187.866623,90.114059 
	C187.425430,87.732010 186.984238,85.349968 186.689621,82.213936 
	C186.341400,80.484711 185.993164,78.755478 185.650787,76.416855 
	C185.273453,75.937492 184.896118,75.458138 184.690994,74.284668 
	C184.047729,72.791519 183.377548,71.309319 182.765335,69.803551 
	C176.331650,53.979378 167.064667,40.474159 152.740707,30.525665 
	C142.963882,23.735310 132.586349,18.769245 120.294083,15.934062 
	C118.546623,15.584077 116.799156,15.234092 114.578094,14.353460 
	C113.394745,14.311049 112.211388,14.268639 110.357529,14.069857 
	C109.900352,14.080515 109.443169,14.091173 108.174515,14.048901 
	C107.517776,15.630285 106.615288,17.158257 106.257469,18.804611 
	C105.592934,21.862043 105.246231,24.988554 104.731705,27.147614 
	C104.729660,23.846069 104.617859,20.539808 104.759483,17.244438 
	C104.877800,14.491619 103.781052,13.405266 101.022560,13.383525 
	C98.151634,13.360897 97.270576,14.686567 97.367249,17.325428 
	C97.480316,20.411791 97.393684,23.505468 97.393684,26.595974 
	C96.910011,26.590431 96.426346,26.584888 95.942673,26.579348 
	C95.942673,23.484709 95.848953,20.386421 95.969238,17.296465 
	C96.087608,14.255745 94.651428,13.505014 91.172325,14.138429 
	C88.437111,14.695188 85.701897,15.251945 82.223732,15.849958 
	C80.813080,16.258299 79.402435,16.666637 77.204033,17.094481 
	C71.902496,19.152725 66.663269,21.393377 61.286015,23.229931 
	C51.167011,26.685991 43.908905,34.094124 36.573044,41.222038 
	C33.081566,44.614548 31.055416,49.464954 27.840225,53.203175 
	C22.372656,59.560165 19.718451,67.032066 17.609949,75.415306 
	C17.464973,75.947777 17.320000,76.480247 16.968374,77.672310 
	C16.701345,78.777725 16.434317,79.883141 16.062124,81.503235 
	C16.067617,81.678253 16.073112,81.853271 15.760864,82.573097 
	C15.572421,83.377548 15.383978,84.181999 15.046535,85.633034 
	C14.974153,86.069313 14.901769,86.505592 14.454679,87.223183 
z"/>
<path fill="#FEFEFE" opacity="1.000000" stroke="none" 
	d="
M175.056152,33.848198 
	C172.944153,31.651430 170.832169,29.454659 168.259857,26.841032 
	C167.244781,26.215878 166.689987,26.007576 166.135208,25.799274 
	C166.135208,25.799276 166.035828,25.838301 166.067810,25.546717 
	C165.703720,25.090729 165.307648,24.926325 164.911560,24.761923 
	C160.295135,21.389994 155.727127,17.949207 151.051773,14.661062 
	C142.436157,8.601739 132.604904,5.768091 122.380554,3.925378 
	C119.980988,3.492910 117.699081,2.407596 115.181519,1.311315 
	C143.593140,1.000000 172.186264,1.000000 201.000000,1.000000 
	C201.000000,29.020508 201.000000,57.041595 201.000000,85.531342 
	C200.001801,82.550346 199.043640,79.088516 197.998154,75.653252 
	C194.377411,63.756271 190.092987,52.180458 181.475433,42.028152 
	C180.831589,41.270828 180.446136,41.099045 180.060684,40.927261 
	C180.060684,40.927258 180.253067,40.971607 180.298019,40.557259 
	C179.912216,39.733395 179.481461,39.323879 179.050705,38.914368 
	C179.050705,38.914368 179.038025,38.980907 178.879089,38.740555 
	C178.207413,37.925079 177.694672,37.349953 177.181931,36.774826 
	C177.181931,36.774826 177.133926,36.886135 177.146759,36.594200 
	C176.800323,36.166664 176.441040,36.031059 176.081772,35.895458 
	C176.081772,35.895458 176.161316,35.941242 176.226044,35.581631 
	C175.879242,34.764076 175.467697,34.306137 175.056152,33.848198 
z"/>
<path fill="#FEFEFE" opacity="1.000000" stroke="none" 
	d="
M115.468658,201.000000 
	C116.194611,200.629898 117.368454,200.161102 118.586990,199.904755 
	C132.725464,196.930664 145.412766,190.605316 157.556778,183.039490 
	C160.329102,181.312302 162.995743,179.415497 166.143585,177.221649 
	C166.843201,176.638870 167.042099,176.379028 167.172852,176.067017 
	C168.042114,175.341721 168.911377,174.616440 170.193390,173.489380 
	C170.757248,172.731049 170.908371,172.374496 171.059509,172.017944 
	C171.059509,172.017944 170.998016,172.035828 171.298737,172.019165 
	C171.761887,171.678513 171.924316,171.354523 172.086746,171.030533 
	C172.086746,171.030533 172.032501,170.997787 172.324814,170.991760 
	C172.883987,170.690414 173.150848,170.395111 173.417694,170.099792 
	C174.220947,169.305862 175.024185,168.511932 176.200150,167.302307 
	C177.008377,166.247009 177.443893,165.607407 177.879395,164.967804 
	C182.826675,156.876648 188.431244,149.101624 192.521149,140.598114 
	C196.033035,133.296356 197.813889,125.162033 200.680115,117.197937 
	C201.000000,144.927765 201.000000,172.855515 201.000000,201.000000 
	C172.646133,201.000000 144.291733,201.000000 115.468658,201.000000 
z"/>
<path fill="#FEFEFE" opacity="1.000000" stroke="none" 
	d="
M0.999999,115.468658 
	C2.589935,120.116982 4.376156,125.182564 5.732302,130.360779 
	C9.511513,144.791046 16.408510,157.396439 27.252022,167.705795 
	C32.499329,172.694611 37.596870,177.945236 43.383305,182.240662 
	C54.842785,190.747360 67.646439,196.633484 81.710625,199.557922 
	C82.682610,199.760040 83.627586,200.092041 84.792557,200.681824 
	C57.072243,201.000000 29.144482,201.000000 1.000000,201.000000 
	C1.000000,172.646133 1.000000,144.291733 0.999999,115.468658 
z"/>
<path fill="#FEFEFE" opacity="1.000000" stroke="none" 
	d="
M11.920691,54.990841 
	C8.494572,65.199379 5.068454,75.407913 1.321168,85.808228 
	C1.000000,57.739334 1.000000,29.478668 1.000000,1.000000 
	C29.353855,1.000000 57.708271,1.000000 86.531342,1.000000 
	C81.940910,2.338733 76.881828,3.677466 71.126869,4.830540 
	C62.624393,6.114629 54.817783,7.584377 46.658737,9.113106 
	C44.186256,10.084025 42.066219,10.995964 39.567657,11.951469 
	C35.111404,12.529061 33.680321,14.994939 33.986122,18.895088 
	C34.178440,21.347857 34.135147,23.819099 34.197552,26.282055 
	C33.950222,26.557705 33.702892,26.833355 33.213840,26.767387 
	C32.972122,23.004042 32.972122,19.582314 32.972122,16.160587 
	C32.370354,16.175867 31.768583,16.191149 31.166815,16.206429 
	C31.166815,20.523815 31.166815,24.841200 31.166813,29.158587 
	C30.612579,29.749809 30.058346,30.341032 29.251110,30.606018 
	C28.998112,26.097298 28.998112,21.914818 28.998112,17.266546 
	C23.770489,18.529602 20.346298,20.279360 18.587736,24.604450 
	C17.283230,27.812805 15.571345,30.855520 14.015587,34.294136 
	C13.959801,35.044590 13.929354,35.472927 13.652325,36.095741 
	C12.928391,37.201027 12.451042,38.111832 11.812955,39.351662 
	C11.103549,42.120186 10.554881,44.559685 9.687354,47.150433 
	C5.932341,52.988682 6.423299,54.467823 11.920691,54.990841 
z"/>
<path fill="#D9DBE0" opacity="1.000000" stroke="none" 
	d="
M113.625000,1.000000 
	C113.135986,1.141595 112.271980,1.283191 111.203979,1.212394 
	C111.750000,1.000000 112.500000,1.000000 113.625000,1.000000 
z"/>
<path fill="#FDFDFE" opacity="1.000000" stroke="none" 
	d="
M185.644928,77.026253 
	C185.993164,78.755478 186.341400,80.484711 186.182312,82.597038 
	C181.424026,82.980141 177.173080,82.980141 172.398804,82.980141 
	C173.895691,89.648170 170.617584,90.519089 165.927658,90.040871 
	C163.630234,89.806610 161.288986,90.002075 158.789215,89.674278 
	C152.185623,64.703613 136.528992,49.419456 111.905525,42.765625 
	C111.616783,37.867744 111.305084,33.452358 110.994217,28.569338 
	C111.006042,23.476543 111.017036,18.851385 111.028030,14.226229 
	C112.211388,14.268639 113.394745,14.311049 114.802757,15.093014 
	C115.759148,24.479242 116.490875,33.125916 117.222603,41.772591 
	C117.743820,41.745411 118.265038,41.718235 118.786255,41.691055 
	C119.531464,33.185436 120.276672,24.679815 121.021881,16.174194 
	C132.586349,18.769245 142.963882,23.735310 152.740707,30.525665 
	C167.064667,40.474159 176.331650,53.979378 182.765335,69.803551 
	C183.377548,71.309319 184.047729,72.791519 184.173080,74.635559 
	C179.549210,74.986443 175.443253,74.986443 171.337296,74.986443 
	C171.331818,75.666382 171.326355,76.346313 171.320892,77.026253 
	C176.095566,77.026253 180.870255,77.026253 185.644928,77.026253 
M126.998161,23.057364 
	C126.741997,22.104544 126.485840,21.151724 126.229675,20.198904 
	C126.043671,20.253551 125.857666,20.308199 125.671661,20.362846 
	C125.671661,23.797705 125.671661,27.232561 125.671661,30.667419 
	C126.116318,30.662300 126.560966,30.657181 127.005623,30.652061 
	C127.005623,28.389410 127.005623,26.126757 126.998161,23.057364 
M121.994881,26.151781 
	C122.191406,27.360983 122.387932,28.570183 122.584457,29.779385 
	C122.883728,29.702036 123.182991,29.624687 123.482254,29.547338 
	C123.482254,26.139765 123.482254,22.732191 123.482254,19.324617 
	C122.985779,19.314354 122.489304,19.304090 121.992828,19.293827 
	C121.992828,21.303892 121.992828,23.313957 121.994881,26.151781 
z"/>
<path fill="#FEFEFE" opacity="1.000000" stroke="none" 
	d="
M187.780685,111.076324 
	C187.818710,111.485413 187.856735,111.894493 187.595612,112.889023 
	C186.401917,117.742310 185.507370,122.010162 184.104065,126.221703 
	C179.173065,126.165398 174.750824,126.165398 170.328598,126.165398 
	C170.331451,126.778908 170.334290,127.392426 170.337143,128.005936 
	C174.876434,128.005936 179.415726,128.005936 183.923401,128.385513 
	C183.383118,130.491714 182.874451,132.218323 182.365784,133.944931 
	C176.715240,143.000412 171.891968,152.730499 165.199921,160.936630 
	C157.249878,170.685364 146.025589,176.650330 133.966858,182.112152 
	C132.215515,182.579849 131.112335,182.809296 130.007202,182.571686 
	C130.005264,177.965515 130.005264,173.826370 130.005264,169.687241 
	C129.079865,169.684448 128.154465,169.681656 127.229057,169.678864 
	C127.158813,174.469116 127.088562,179.259369 126.802490,184.335129 
	C124.727043,185.061600 122.867416,185.502563 121.006958,185.622803 
	C121.013924,184.874710 121.021721,184.447342 121.367096,183.873657 
	C125.281914,180.522491 124.050850,176.526062 123.373222,172.695221 
	C123.308151,172.327362 121.823174,172.210648 120.663567,171.979965 
	C119.884697,171.986893 119.439613,171.991180 118.622406,171.995422 
	C117.506546,171.992233 116.762810,171.989090 116.167122,171.605896 
	C116.787285,167.355713 118.612366,163.328262 115.002167,159.654877 
	C115.002472,159.006241 115.002594,158.635605 115.356552,158.115646 
	C127.461510,154.630783 137.011322,148.220108 145.222122,139.024765 
	C152.327393,131.067520 156.116058,121.875328 159.435242,111.988907 
	C164.603638,111.640907 169.306458,111.292976 174.471771,110.966751 
	C179.216400,111.017754 183.498535,111.047043 187.780685,111.076324 
z"/>
<path fill="#FEFEFE" opacity="1.000000" stroke="none" 
	d="
M84.974976,186.768829 
	C79.381310,185.208176 73.430466,184.391678 68.275322,181.917389 
	C59.951714,177.922348 51.527737,173.630554 44.320728,167.968903 
	C38.126404,163.102829 32.657104,156.707031 28.536339,149.967133 
	C23.758442,142.152435 20.802965,133.223511 17.529799,124.389565 
	C21.001091,123.996117 24.007713,124.121849 26.992542,123.922020 
	C28.176912,123.842743 30.301888,123.070793 30.317064,122.563866 
	C30.459419,117.808960 33.931545,119.159035 36.483868,119.032898 
	C39.308319,118.893318 42.145012,119.001457 45.186554,119.293472 
	C52.259346,137.429977 64.383286,150.015259 82.429153,156.721634 
	C83.428520,157.093018 84.266296,157.899185 85.129066,158.598633 
	C85.078850,158.694305 85.126755,158.934235 85.126755,158.934235 
	C85.126755,158.934235 85.306145,158.592834 85.702301,158.632050 
	C87.415848,158.758347 88.733253,158.845444 90.065659,159.399780 
	C90.058388,163.911560 90.036102,167.956070 89.689651,172.022461 
	C88.579269,172.356522 87.793045,172.668716 86.665222,173.161865 
	C85.874084,177.818161 85.424530,182.293488 84.974976,186.768829 
M72.005775,173.784760 
	C72.567230,176.929688 70.346710,181.561691 76.944183,182.597900 
	C76.944183,178.884125 77.230209,175.894836 76.812225,173.007477 
	C76.628944,171.741379 75.009109,170.683212 74.041573,169.530640 
	C73.366890,170.665146 72.692200,171.799637 72.005775,173.784760 
M79.989914,178.524963 
	C80.219353,180.472809 80.448799,182.420639 80.678238,184.368484 
	C81.134026,184.331512 81.589806,184.294556 82.045593,184.257584 
	C82.045593,180.255707 82.045593,176.253815 82.045593,172.251938 
	C81.475159,172.223587 80.904724,172.195236 80.334290,172.166901 
	C80.219421,173.998306 80.104546,175.829712 79.989914,178.524963 
z"/>
<path fill="#FEFEFE" opacity="1.000000" stroke="none" 
	d="
M17.994989,74.998840 
	C19.718451,67.032066 22.372656,59.560165 27.840225,53.203175 
	C31.055416,49.464954 33.081566,44.614548 36.573044,41.222038 
	C43.908905,34.094124 51.167011,26.685991 61.286015,23.229931 
	C66.663269,21.393377 71.902496,19.152725 77.602730,17.406046 
	C78.001877,18.146101 78.002335,18.574589 77.610901,19.034206 
	C72.178940,20.436745 70.649315,23.829195 72.090500,30.243473 
	C73.036957,34.455845 75.822983,32.141678 78.217575,32.336147 
	C78.736946,36.114399 79.049690,39.541500 79.362427,42.968605 
	C80.008545,40.354931 79.657722,37.699055 80.138481,35.203369 
	C80.432739,33.675812 82.003258,32.394104 83.000305,31.000954 
	C83.000000,30.999924 82.998131,30.999794 82.999458,31.456913 
	C83.667290,35.609859 84.333801,39.305695 85.029564,43.364815 
	C85.079765,43.970173 85.100716,44.212246 84.804688,44.595181 
	C68.865349,49.616955 57.315334,59.564705 49.422089,73.679291 
	C46.942352,78.113518 45.623489,83.196945 43.324242,87.985146 
	C38.249928,87.658150 33.624653,87.329231 28.818001,86.661575 
	C24.156261,85.877388 19.675898,85.431923 15.195536,84.986450 
	C15.383978,84.181999 15.572421,83.377548 16.296806,82.455605 
	C20.761051,82.573959 24.689354,82.809799 28.617655,83.045647 
	C28.635031,82.359955 28.652407,81.674255 28.669783,80.988556 
	C24.502285,80.988556 20.334785,80.988556 16.167288,80.988556 
	C16.434317,79.883141 16.701345,78.777725 17.525383,77.339592 
	C22.290979,77.006874 26.499569,77.006874 30.708157,77.006874 
	C30.687275,76.337532 30.666393,75.668182 30.645512,74.998840 
	C26.428671,74.998840 22.211830,74.998840 17.994989,74.998840 
z"/>
<path fill="#FBFCFC" opacity="1.000000" stroke="none" 
	d="
M44.976376,119.001717 
	C42.145012,119.001457 39.308319,118.893318 36.483868,119.032898 
	C33.931545,119.159035 30.459419,117.808960 30.317064,122.563866 
	C30.301888,123.070793 28.176912,123.842743 26.992542,123.922020 
	C24.007713,124.121849 21.001091,123.996117 17.545074,124.000717 
	C16.088846,119.956703 15.090749,115.912827 14.601768,111.441353 
	C19.734291,111.009041 24.357695,111.004326 29.336298,111.210289 
	C34.219482,111.571693 38.747471,111.722427 43.405067,112.207970 
	C43.548164,112.781738 43.561653,113.020706 43.060936,113.205826 
	C38.356579,113.151978 34.166424,113.151978 29.976267,113.151978 
	C29.980614,113.296272 29.984962,113.440567 29.989309,113.584862 
	C34.538456,113.584862 39.087601,113.584862 43.768166,113.908882 
	C44.258514,115.822510 44.617443,117.412109 44.976376,119.001717 
z"/>
<path fill="#F8F9FA" opacity="1.000000" stroke="none" 
	d="
M158.967575,90.003059 
	C161.288986,90.002075 163.630234,89.806610 165.927658,90.040871 
	C170.617584,90.519089 173.895691,89.648170 172.398804,82.980141 
	C177.173080,82.980141 181.424026,82.980141 186.109024,82.974030 
	C186.984238,85.349968 187.425430,87.732010 187.388153,90.530029 
	C183.012085,90.946007 179.114502,90.946007 175.216919,90.946007 
	C175.230972,91.632645 175.245041,92.319290 175.259109,93.005928 
	C179.502594,93.005928 183.746063,93.005928 187.989548,93.005928 
	C188.554489,96.122887 186.402786,95.853569 184.394913,96.032715 
	C180.987793,96.336693 177.598053,96.835419 174.098724,97.627914 
	C173.996445,98.003540 174.038010,97.961418 173.571548,98.000175 
	C168.714447,98.155632 164.323792,98.272339 159.662140,98.059410 
	C159.249954,95.154205 159.108765,92.578636 158.967575,90.003059 
z"/>
<path fill="#F3F4F5" opacity="1.000000" stroke="none" 
	d="
M91.980133,14.218588 
	C94.651428,13.505014 96.087608,14.255745 95.969238,17.296465 
	C95.848953,20.386421 95.942673,23.484709 95.942673,26.579348 
	C96.426346,26.584888 96.910011,26.590431 97.393684,26.595974 
	C97.393684,23.505468 97.480316,20.411791 97.367249,17.325428 
	C97.270576,14.686567 98.151634,13.360897 101.022560,13.383525 
	C103.781052,13.405266 104.877800,14.491619 104.759483,17.244438 
	C104.617859,20.539808 104.729660,23.846069 104.658813,27.589048 
	C104.585922,28.030483 104.413506,27.946407 103.937820,27.988167 
	C99.146141,27.365221 97.544319,29.173897 97.917671,33.512196 
	C98.181671,36.579781 97.751060,39.707146 97.313873,42.812355 
	C96.366753,42.786816 95.736298,42.756744 95.072342,42.283993 
	C95.038826,37.977043 95.038826,34.112778 95.038826,30.248510 
	C94.346901,30.262629 93.654976,30.276745 92.963051,30.290863 
	C92.963051,34.500671 92.963051,38.710480 92.729340,42.965168 
	C92.495621,43.010048 92.023598,42.948921 92.011917,42.486656 
	C92.001640,37.338715 92.003036,32.653046 92.001862,27.505905 
	C91.992905,22.769156 91.986519,18.493872 91.980133,14.218588 
z"/>
<path fill="#F7F8F9" opacity="1.000000" stroke="none" 
	d="
M28.999380,87.000305 
	C33.624653,87.329231 38.249928,87.658150 43.317932,88.383347 
	C43.438911,91.718002 43.117165,94.656380 42.353386,97.694717 
	C37.258587,97.852142 32.605820,97.909622 27.979416,97.977661 
	C28.005781,97.988228 28.033045,98.038071 27.924282,97.638145 
	C23.244085,96.775208 18.672649,96.312195 14.101214,95.849182 
	C14.054011,95.140366 14.006808,94.431557 14.464875,93.354347 
	C18.890285,92.985954 22.810425,92.985954 26.730566,92.985954 
	C26.722424,92.304604 26.714281,91.623260 26.706139,90.941910 
	C22.541059,90.941910 18.375982,90.941910 14.210903,90.941910 
	C14.277587,90.391495 14.344270,89.841080 15.115778,89.135376 
	C19.875448,88.321770 23.930294,87.663452 28.238701,87.003876 
	C28.661299,87.001839 28.830339,87.001076 28.999380,87.000305 
z"/>
<path fill="#FBFCFC" opacity="1.000000" stroke="none" 
	d="
M91.576225,14.178509 
	C91.986519,18.493872 91.992905,22.769156 91.688873,27.736351 
	C91.246025,33.278145 91.113602,38.128029 90.640884,43.143631 
	C88.574287,43.691006 86.847969,44.072662 85.121658,44.454319 
	C85.100716,44.212246 85.079765,43.970173 85.029953,42.906548 
	C84.998642,39.253601 85.156311,36.407715 84.902206,33.599087 
	C84.819305,32.682735 83.663330,31.863466 82.998131,30.999794 
	C82.998131,30.999794 83.000000,30.999924 83.000931,30.534153 
	C82.990135,25.315155 82.978409,20.561930 82.966682,15.808704 
	C85.701897,15.251945 88.437111,14.695188 91.576225,14.178509 
M86.738556,18.872793 
	C86.492401,18.696581 86.260277,18.492121 85.992599,18.359266 
	C85.897125,18.311880 85.594093,18.430471 85.590645,18.486023 
	C85.400902,21.541477 85.232979,24.598286 85.062843,27.654957 
	C85.677910,27.668673 86.292976,27.682388 86.908043,27.696104 
	C86.908043,24.982996 86.908043,22.269886 86.738556,18.872793 
z"/>
<path fill="#D9DBE0" opacity="1.000000" stroke="none" 
	d="
M14.040926,33.972019 
	C15.571345,30.855520 17.283230,27.812805 18.587736,24.604450 
	C20.346298,20.279360 23.770489,18.529602 28.998112,17.266546 
	C28.998112,21.914818 28.998112,26.097298 28.989544,30.763676 
	C28.227266,32.058388 27.473553,32.869202 26.025124,33.858150 
	C21.567245,34.014862 17.804087,33.993443 14.040926,33.972019 
z"/>
<path fill="#F3F4F5" opacity="1.000000" stroke="none" 
	d="
M28.981098,110.999619 
	C24.357695,111.004326 19.734291,111.009041 14.659286,111.017792 
	C14.125730,109.658157 14.043773,108.294472 14.478109,106.501648 
	C19.320797,105.658073 23.647190,105.243652 28.437069,104.856819 
	C33.529438,104.733559 38.158318,104.582703 42.814217,104.840622 
	C42.921593,107.171455 43.001945,109.093521 42.611168,111.016304 
	C37.753723,111.011215 33.367409,111.005417 28.981098,110.999619 
z"/>
<path fill="#F7F8F9" opacity="1.000000" stroke="none" 
	d="
M111.015533,187.718658 
	C109.626732,187.866943 108.237923,188.015228 106.452301,187.611816 
	C106.065483,183.944473 106.281296,180.809296 105.988243,177.722443 
	C105.864067,176.414536 104.671165,175.208069 103.983337,173.976593 
	C104.002686,173.997665 104.041458,174.039719 103.985695,173.574478 
	C103.965942,168.745972 104.001953,164.382706 104.451141,160.023422 
	C106.240425,159.975143 107.616539,159.922867 108.992729,160.347610 
	C108.990440,164.317505 108.761665,167.830841 109.074463,171.295258 
	C109.249405,173.232803 110.322777,175.089264 110.996399,177.436462 
	C111.006165,181.166672 111.010849,184.442673 111.015533,187.718658 
z"/>
<path fill="#E6E6E7" opacity="1.000000" stroke="none" 
	d="
M47.011177,9.054126 
	C54.817783,7.584377 62.624393,6.114629 70.738342,4.901434 
	C63.574459,8.676385 56.103230,12.194781 48.159653,15.479088 
	C47.461922,13.181375 47.236549,11.117750 47.011177,9.054126 
z"/>
<path fill="#F3F4F5" opacity="1.000000" stroke="none" 
	d="
M120.657974,16.054129 
	C120.276672,24.679815 119.531464,33.185436 118.786255,41.691055 
	C118.265038,41.718235 117.743820,41.745411 117.222603,41.772591 
	C116.490875,33.125916 115.759148,24.479242 115.039558,15.358337 
	C116.799156,15.234092 118.546623,15.584077 120.657974,16.054129 
z"/>
<path fill="#F7F8F9" opacity="1.000000" stroke="none" 
	d="
M104.226044,188.089508 
	C102.602745,188.606140 100.979454,189.122772 99.356163,189.639404 
	C98.855270,188.028351 98.042107,186.440674 97.919327,184.801300 
	C97.673195,181.515030 97.804443,178.200500 98.188713,174.424713 
	C100.412163,173.981094 102.226807,174.010406 104.041458,174.039719 
	C104.041458,174.039719 104.002686,173.997665 104.000061,174.445129 
	C104.073647,179.291580 104.149841,183.690536 104.226044,188.089508 
z"/>
<path fill="#F8F9FA" opacity="1.000000" stroke="none" 
	d="
M173.975647,98.024582 
	C177.203445,98.002571 180.467606,98.143959 183.696884,97.871735 
	C188.161102,97.495392 189.756241,99.231239 187.824860,103.822220 
	C182.756866,104.059113 178.361832,104.016808 173.984222,103.989426 
	C174.001648,104.004356 174.036316,104.034416 174.008118,103.601456 
	C173.999283,101.432800 174.018646,99.697105 174.038010,97.961418 
	C174.038010,97.961418 173.996445,98.003540 173.975647,98.024582 
z"/>
<path fill="#F8F9FA" opacity="1.000000" stroke="none" 
	d="
M188.025513,105.957077 
	C188.059891,106.717552 188.094254,107.478035 187.590881,108.626472 
	C182.707230,109.039909 178.361313,109.065392 173.728638,108.824570 
	C168.680634,108.025589 163.919388,107.492905 159.122223,106.610016 
	C159.372116,105.402870 159.657913,104.545944 160.407440,103.767899 
	C165.259537,103.909325 169.647934,103.971870 174.036316,104.034416 
	C174.036316,104.034416 174.001648,104.004356 174.093964,104.381447 
	C178.799377,105.158051 183.412445,105.557564 188.025513,105.957077 
z"/>
<path fill="#F3F4F5" opacity="1.000000" stroke="none" 
	d="
M82.595207,15.829330 
	C82.978409,20.561930 82.990135,25.315155 83.001236,30.535183 
	C82.003258,32.394104 80.432739,33.675812 80.138481,35.203369 
	C79.657722,37.699055 80.008545,40.354931 79.362427,42.968605 
	C79.049690,39.541500 78.736946,36.114399 78.215561,31.874710 
	C78.005531,27.042442 78.004150,23.022760 78.002777,19.003078 
	C78.002335,18.574589 78.001877,18.146101 77.996605,17.396294 
	C79.402435,16.666637 80.813080,16.258299 82.595207,15.829330 
z"/>
<path fill="#FDFDFE" opacity="1.000000" stroke="none" 
	d="
M104.413498,27.946407 
	C104.413506,27.946407 104.585922,28.030483 104.676559,28.058393 
	C105.246231,24.988554 105.592934,21.862043 106.257469,18.804611 
	C106.615288,17.158257 107.517776,15.630285 108.585930,14.532453 
	C108.323746,24.263334 107.650146,33.510666 106.667969,42.781540 
	C105.740814,42.788456 105.122231,42.771832 104.408905,42.315517 
	C104.347282,37.232689 104.380394,32.589550 104.413498,27.946407 
z"/>
<path fill="#A3B1BF" opacity="1.000000" stroke="none" 
	d="
M103.985695,173.574478 
	C102.226807,174.010406 100.412163,173.981094 98.137238,173.965393 
	C97.676964,173.979004 97.519279,174.056793 97.383774,173.859970 
	C97.248260,173.663147 97.199501,173.235504 97.449387,172.884796 
	C97.890915,168.339096 98.082558,164.144104 98.684937,159.952026 
	C100.743103,159.976440 102.390526,159.997940 104.037964,160.019440 
	C104.001953,164.382706 103.965942,168.745972 103.985695,173.574478 
z"/>
<path fill="#FEFEFE" opacity="1.000000" stroke="none" 
	d="
M13.891722,104.216667 
	C13.854206,102.399933 13.816691,100.583199 14.325075,98.322876 
	C19.258331,97.932213 23.645687,97.985146 28.033045,98.038071 
	C28.033045,98.038071 28.005781,97.988228 28.004353,98.411896 
	C28.009356,100.578026 28.015785,102.320488 27.556305,104.090439 
	C22.690838,104.150841 18.291281,104.183754 13.891722,104.216667 
z"/>
<path fill="#F3F4F5" opacity="1.000000" stroke="none" 
	d="
M85.243698,186.898666 
	C85.424530,182.293488 85.874084,177.818161 86.907394,173.363235 
	C88.637840,173.906281 89.784538,174.428925 90.950821,175.413116 
	C90.962791,179.261780 90.955177,182.648941 90.687668,186.155746 
	C89.914795,186.533401 89.401794,186.791382 88.888802,187.049377 
	C87.763344,187.042419 86.637894,187.035461 85.243698,186.898666 
z"/>
<path fill="#E6E6E7" opacity="1.000000" stroke="none" 
	d="
M34.488640,26.139545 
	C34.135147,23.819099 34.178440,21.347857 33.986122,18.895088 
	C33.680321,14.994939 35.111404,12.529061 39.780212,12.302628 
	C40.673973,15.147951 40.976646,17.685684 41.279320,20.223415 
	C41.279324,20.223415 41.067566,20.241686 40.860153,20.349955 
	C40.454590,20.792765 40.256439,21.127306 40.058285,21.461845 
	C38.298767,22.973577 36.539249,24.485308 34.488640,26.139545 
z"/>
<path fill="#E7EAED" opacity="1.000000" stroke="none" 
	d="
M10.006212,46.999187 
	C10.554881,44.559685 11.103549,42.120186 12.275627,39.355236 
	C16.037853,39.030651 19.176672,39.031513 22.315489,39.032372 
	C20.346533,41.836250 18.377579,44.640133 15.843084,47.481911 
	C13.520433,47.346268 11.763323,47.172729 10.006212,46.999187 
z"/>
<path fill="#D9DBE0" opacity="1.000000" stroke="none" 
	d="
M90.947563,186.036087 
	C90.955177,182.648941 90.962791,179.261780 90.919830,175.104218 
	C90.584114,173.556076 90.298965,172.778336 90.013809,172.000595 
	C90.036102,167.956070 90.058388,163.911560 90.481857,159.384857 
	C91.976006,159.076859 93.068970,159.251038 94.167213,159.587006 
	C94.172493,159.748779 94.140503,160.070923 93.902573,160.402710 
	C93.456551,165.175201 93.248466,169.615906 93.022873,174.515472 
	C93.011429,179.303986 93.017479,183.633667 93.023529,187.963333 
	C92.543549,187.920654 92.063560,187.877975 91.243256,187.491302 
	C90.917816,186.776886 90.932693,186.406479 90.947563,186.036087 
z"/>
<path fill="#FDFDFE" opacity="1.000000" stroke="none" 
	d="
M111.325310,187.740509 
	C111.010849,184.442673 111.006165,181.166672 111.005043,177.012299 
	C111.335152,170.416153 111.661697,164.698395 112.273567,158.847961 
	C113.373505,158.565170 114.188110,158.415070 115.002716,158.264954 
	C115.002594,158.635605 115.002472,159.006241 114.665649,159.850098 
	C114.227142,164.889236 114.125336,169.455170 114.018326,174.474579 
	C114.305534,178.885880 114.597954,182.843704 114.666794,186.871979 
	C114.443207,186.942413 114.004616,187.108063 114.004616,187.108063 
	C113.214775,187.326157 112.424934,187.544250 111.325310,187.740509 
z"/>
<path fill="#F3F4F5" opacity="1.000000" stroke="none" 
	d="
M106.976547,42.757996 
	C107.650146,33.510666 108.323746,24.263334 108.991669,14.558918 
	C109.443169,14.091173 109.900352,14.080515 110.692780,14.148043 
	C111.017036,18.851385 111.006042,23.476543 110.859497,28.749916 
	C110.530548,29.630989 110.313721,29.839474 109.814407,30.123177 
	C109.707291,33.823559 109.859207,37.424355 110.014839,41.350967 
	C110.011017,42.111134 110.003494,42.545475 109.615967,43.006355 
	C108.482826,42.941257 107.729691,42.849628 106.976547,42.757996 
z"/>
<path fill="#E7EAED" opacity="1.000000" stroke="none" 
	d="
M41.603477,20.159609 
	C40.976646,17.685684 40.673973,15.147951 40.158741,12.259060 
	C42.066219,10.995964 44.186256,10.084025 46.658737,9.113106 
	C47.236549,11.117750 47.461922,13.181375 47.832531,15.602025 
	C45.961056,17.337969 43.944344,18.716885 41.603477,20.159609 
z"/>
<path fill="#F3F4F5" opacity="1.000000" stroke="none" 
	d="
M9.687354,47.150433 
	C11.763323,47.172729 13.520433,47.346268 15.599371,47.704227 
	C14.738371,50.090031 13.555545,52.291416 12.146706,54.741821 
	C6.423299,54.467823 5.932341,52.988682 9.687354,47.150433 
z"/>
<path fill="#9BA2AF" opacity="1.000000" stroke="none" 
	d="
M182.690628,133.744675 
	C182.874451,132.218323 183.383118,130.491714 184.078064,128.115768 
	C184.380524,127.070290 184.496674,126.674149 184.612823,126.278008 
	C185.507370,122.010162 186.401917,117.742310 187.562927,113.196411 
	C187.779587,115.729309 188.255325,118.678757 187.559387,121.319435 
	C186.456818,125.503029 184.570282,129.480011 182.690628,133.744675 
z"/>
<path fill="#9BA2AF" opacity="1.000000" stroke="none" 
	d="
M114.161247,187.411560 
	C114.004616,187.108063 114.443207,186.942413 115.026947,186.908783 
	C116.092445,186.862274 116.574211,186.849396 117.337280,186.871216 
	C118.121773,186.703354 118.624947,186.500809 119.447380,186.269974 
	C120.180351,186.142303 120.594070,186.042923 121.007790,185.943542 
	C122.867416,185.502563 124.727043,185.061600 127.134598,184.295517 
	C128.458069,183.659851 129.233612,183.349289 130.009155,183.038727 
	C131.112335,182.809296 132.215515,182.579849 133.653107,182.298645 
	C130.426178,186.026306 118.588356,189.317230 114.161247,187.411560 
z"/>
<path fill="#E6E6E7" opacity="1.000000" stroke="none" 
	d="
M93.040375,174.056610 
	C93.248466,169.615906 93.456551,165.175201 94.030052,160.762253 
	C95.330147,164.938522 96.264824,169.087006 97.199501,173.235504 
	C97.199501,173.235504 97.248260,173.663147 97.296913,173.873535 
	C96.856277,174.078735 96.366982,174.073547 95.161812,174.046890 
	C93.977417,174.035828 93.508896,174.046219 93.040375,174.056610 
z"/>
<path fill="#D9DBE0" opacity="1.000000" stroke="none" 
	d="
M22.535860,38.880154 
	C19.176672,39.031513 16.037853,39.030651 12.436364,39.026215 
	C12.451042,38.111832 12.928391,37.201027 14.105888,36.115780 
	C17.867338,36.286644 20.928642,36.631950 23.989944,36.977257 
	C23.578707,37.560814 23.167469,38.144375 22.535860,38.880154 
z"/>
<path fill="#F8F9FA" opacity="1.000000" stroke="none" 
	d="
M185.647858,76.721558 
	C180.870255,77.026253 176.095566,77.026253 171.320892,77.026253 
	C171.326355,76.346313 171.331818,75.666382 171.337296,74.986443 
	C175.443253,74.986443 179.549210,74.986443 184.086975,74.982613 
	C184.896118,75.458138 185.273453,75.937492 185.647858,76.721558 
z"/>
<path fill="#F8F9FA" opacity="1.000000" stroke="none" 
	d="
M17.802469,75.207077 
	C22.211830,74.998840 26.428671,74.998840 30.645512,74.998840 
	C30.666393,75.668182 30.687275,76.337532 30.708157,77.006874 
	C26.499569,77.006874 22.290979,77.006874 17.628708,77.009796 
	C17.320000,76.480247 17.464973,75.947777 17.802469,75.207077 
z"/>
<path fill="#FEFEFE" opacity="1.000000" stroke="none" 
	d="
M93.022881,174.515472 
	C93.508896,174.046219 93.977417,174.035828 94.797882,174.025330 
	C95.123337,178.101303 95.152069,182.179276 95.011162,186.251373 
	C94.989883,186.866211 94.177933,187.453705 93.377625,188.008591 
	C93.017479,183.633667 93.011429,179.303986 93.022881,174.515472 
z"/>
<path fill="#E6E6E7" opacity="1.000000" stroke="none" 
	d="
M174.015396,109.090866 
	C178.361313,109.065392 182.707230,109.039909 187.516022,109.003052 
	C187.952484,109.456573 187.926086,109.921478 187.840179,110.731354 
	C183.498535,111.047043 179.216400,111.017754 174.470840,110.657738 
	C174.010086,109.914963 174.012741,109.502914 174.015396,109.090866 
z"/>
<path fill="#B8BCC1" opacity="1.000000" stroke="none" 
	d="
M188.037811,105.668137 
	C183.412445,105.557564 178.799377,105.158051 174.076538,104.366516 
	C178.361832,104.016808 182.756866,104.059113 187.620758,104.162796 
	C188.076447,104.609184 188.063263,104.994186 188.037811,105.668137 
z"/>
<path fill="#B8BCC1" opacity="1.000000" stroke="none" 
	d="
M104.525925,188.071686 
	C104.149841,183.690536 104.073647,179.291580 103.980721,174.424057 
	C104.671165,175.208069 105.864067,176.414536 105.988243,177.722443 
	C106.281296,180.809296 106.065483,183.944473 106.040710,187.522766 
	C105.625900,188.008240 105.225861,188.031036 104.525925,188.071686 
z"/>
<path fill="#B8BCC1" opacity="1.000000" stroke="none" 
	d="
M13.915742,104.534012 
	C18.291281,104.183754 22.690838,104.150841 27.553314,104.282501 
	C28.016230,104.447083 27.973583,104.829224 27.973583,104.829224 
	C23.647190,105.243652 19.320797,105.658073 14.537054,106.094772 
	C14.033058,105.695152 13.986410,105.273254 13.915742,104.534012 
z"/>
<path fill="#F8F9FA" opacity="1.000000" stroke="none" 
	d="
M28.818001,86.661575 
	C28.830339,87.001076 28.661299,87.001839 27.775955,87.003990 
	C22.982895,86.984207 18.906141,86.963036 14.829386,86.941864 
	C14.901769,86.505592 14.974153,86.069313 15.121037,85.309746 
	C19.675898,85.431923 24.156261,85.877388 28.818001,86.661575 
z"/>
<path fill="#B8BCC1" opacity="1.000000" stroke="none" 
	d="
M27.924282,97.638145 
	C23.645687,97.985146 19.258331,97.932213 14.400982,97.874275 
	C13.972632,97.420792 14.014274,96.972305 14.078564,96.186508 
	C18.672649,96.312195 23.244085,96.775208 27.924282,97.638145 
z"/>
<path fill="#D9DBE0" opacity="1.000000" stroke="none" 
	d="
M187.986664,92.654373 
	C183.746063,93.005928 179.502594,93.005928 175.259109,93.005928 
	C175.245041,92.319290 175.230972,91.632645 175.216919,90.946007 
	C179.114502,90.946007 183.012085,90.946007 187.359253,90.926682 
	C187.867157,91.372505 187.925476,91.837662 187.986664,92.654373 
z"/>
<path fill="#E6E6E7" opacity="1.000000" stroke="none" 
	d="
M14.159010,91.285889 
	C18.375982,90.941910 22.541059,90.941910 26.706139,90.941910 
	C26.714281,91.623260 26.722424,92.304604 26.730566,92.985954 
	C22.810425,92.985954 18.890285,92.985954 14.510763,93.001259 
	C14.069961,92.554329 14.088539,92.092094 14.159010,91.285889 
z"/>
<path fill="#D9DBE0" opacity="1.000000" stroke="none" 
	d="
M31.390114,29.030617 
	C31.166815,24.841200 31.166815,20.523815 31.166815,16.206429 
	C31.768583,16.191149 32.370354,16.175867 32.972122,16.160587 
	C32.972122,19.582314 32.972122,23.004042 32.977478,26.916313 
	C32.526363,27.905455 32.069889,28.404049 31.390114,29.030617 
z"/>
<path fill="#F8F9FA" opacity="1.000000" stroke="none" 
	d="
M16.114706,81.245895 
	C20.334785,80.988556 24.502285,80.988556 28.669783,80.988556 
	C28.652407,81.674255 28.635031,82.359955 28.617655,83.045647 
	C24.689354,82.809799 20.761051,82.573959 16.455681,82.183197 
	C16.073112,81.853271 16.067617,81.678253 16.114706,81.245895 
z"/>
<path fill="#FEFEFE" opacity="1.000000" stroke="none" 
	d="
M14.642033,87.082520 
	C18.906141,86.963036 22.982895,86.984207 27.522396,87.005249 
	C23.930294,87.663452 19.875448,88.321770 15.351048,88.972603 
	C14.739222,88.384468 14.596950,87.803825 14.642033,87.082520 
z"/>
<path fill="#E7EAED" opacity="1.000000" stroke="none" 
	d="
M24.248314,36.799438 
	C20.928642,36.631950 17.867338,36.286644 14.352471,35.921303 
	C13.929354,35.472927 13.959801,35.044590 14.015587,34.294136 
	C17.804087,33.993443 21.567245,34.014862 25.816006,34.050568 
	C25.703299,34.917107 25.104992,35.769367 24.248314,36.799438 
z"/>
<path fill="#9BA2AF" opacity="1.000000" stroke="none" 
	d="
M177.241913,37.084995 
	C177.694672,37.349953 178.207413,37.925079 178.909866,38.726398 
	C178.500336,38.433449 177.901108,37.914303 177.241913,37.084995 
z"/>
<path fill="#FBFCFC" opacity="1.000000" stroke="none" 
	d="
M90.687683,186.155746 
	C90.932693,186.406479 90.917816,186.776886 90.887070,187.425079 
	C90.333069,187.625977 89.794930,187.549042 89.072800,187.260742 
	C89.401794,186.791382 89.914795,186.533401 90.687683,186.155746 
z"/>
<path fill="#9BA2AF" opacity="1.000000" stroke="none" 
	d="
M177.602905,165.096893 
	C177.443893,165.607407 177.008377,166.247009 176.327423,167.048737 
	C176.496780,166.549240 176.911575,165.887604 177.602905,165.096893 
z"/>
<path fill="#9BA2AF" opacity="1.000000" stroke="none" 
	d="
M175.125214,34.136726 
	C175.467697,34.306137 175.879242,34.764076 176.248810,35.541779 
	C175.869324,35.382782 175.531815,34.904018 175.125214,34.136726 
z"/>
<path fill="#9BA2AF" opacity="1.000000" stroke="none" 
	d="
M179.123566,39.195942 
	C179.481461,39.323879 179.912216,39.733395 180.321350,40.461334 
	C179.931961,40.345684 179.564209,39.911602 179.123566,39.195942 
z"/>
<path fill="#9BA2AF" opacity="1.000000" stroke="none" 
	d="
M166.345993,26.008022 
	C166.689987,26.007576 167.244781,26.215878 167.973816,26.684301 
	C167.617645,26.701872 167.087204,26.459320 166.345993,26.008022 
z"/>
<path fill="#9BA2AF" opacity="1.000000" stroke="none" 
	d="
M166.987000,176.084381 
	C167.042099,176.379028 166.843201,176.638870 166.352264,176.952118 
	C166.352646,176.739029 166.576904,176.420380 166.987000,176.084381 
z"/>
<path fill="#9BA2AF" opacity="1.000000" stroke="none" 
	d="
M171.906967,171.203415 
	C171.924316,171.354523 171.761887,171.678513 171.315643,172.046356 
	C171.258362,171.847107 171.490143,171.609131 171.906967,171.203415 
z"/>
<path fill="#9BA2AF" opacity="1.000000" stroke="none" 
	d="
M176.263794,36.081024 
	C176.441040,36.031059 176.800323,36.166664 177.203110,36.616516 
	C176.979691,36.709373 176.712753,36.487980 176.263794,36.081024 
z"/>
<path fill="#9BA2AF" opacity="1.000000" stroke="none" 
	d="
M170.876572,172.235168 
	C170.908371,172.374496 170.757248,172.731049 170.353165,173.254364 
	C170.298019,173.098221 170.495834,172.775299 170.876572,172.235168 
z"/>
<path fill="#9BA2AF" opacity="1.000000" stroke="none" 
	d="
M173.167633,170.234711 
	C173.150848,170.395111 172.883987,170.690414 172.317566,171.022598 
	C172.317856,170.829529 172.617706,170.599579 173.167633,170.234711 
z"/>
<path fill="#9BA2AF" opacity="1.000000" stroke="none" 
	d="
M180.255280,41.141449 
	C180.446136,41.099045 180.831589,41.270828 181.262207,41.790661 
	C181.021545,41.877686 180.735703,41.616661 180.255280,41.141449 
z"/>
<path fill="#9BA2AF" opacity="1.000000" stroke="none" 
	d="
M165.092102,24.970745 
	C165.307648,24.926325 165.703720,25.090729 166.087006,25.596535 
	C165.807022,25.685146 165.539825,25.432358 165.092102,24.970745 
z"/>
<path fill="#E7EAED" opacity="1.000000" stroke="none" 
	d="
M40.312710,21.286274 
	C40.256439,21.127306 40.454590,20.792765 40.849472,20.244219 
	C40.886517,20.390377 40.726826,20.750540 40.312710,21.286274 
z"/>
<path fill="#9BA2AF" opacity="1.000000" stroke="none" 
	d="
M106.667969,42.781540 
	C107.729691,42.849628 108.482826,42.941257 109.925018,43.087654 
	C111.036896,43.177654 111.459732,43.212891 111.882568,43.248127 
	C136.528992,49.419456 152.185623,64.703613 158.789215,89.674278 
	C159.108765,92.578636 159.249954,95.154205 159.669678,98.437042 
	C159.946732,100.659210 159.945221,102.174110 159.943726,103.689018 
	C159.657913,104.545944 159.372116,105.402870 159.172409,106.932808 
	C159.162216,109.066872 159.065948,110.527924 158.969666,111.988976 
	C156.116058,121.875328 152.327393,131.067520 145.222122,139.024765 
	C137.011322,148.220108 127.461510,154.630783 115.356552,158.115662 
	C114.188110,158.415070 113.373505,158.565170 111.944565,158.827301 
	C110.551041,159.249756 109.771843,159.560181 108.992653,159.870605 
	C107.616539,159.922867 106.240425,159.975143 104.451134,160.023422 
	C102.390526,159.997940 100.743103,159.976440 98.355164,159.833145 
	C96.463745,159.615967 95.312843,159.520599 94.161934,159.425217 
	C93.068970,159.251038 91.976006,159.076859 90.466843,158.917603 
	C88.733253,158.845444 87.415848,158.758347 85.664597,158.618042 
	C85.230736,158.564819 85.179283,158.502975 85.179283,158.502975 
	C84.266296,157.899185 83.428520,157.093018 82.429153,156.721634 
	C64.383286,150.015259 52.259346,137.429977 45.186554,119.293472 
	C44.617443,117.412109 44.258514,115.822510 43.779594,113.822876 
	C43.659599,113.412857 43.575138,113.259674 43.575138,113.259674 
	C43.561653,113.020706 43.548164,112.781738 43.387005,111.986977 
	C43.239330,111.431175 43.082298,111.015587 43.082298,111.015587 
	C43.001945,109.093521 42.921593,107.171455 42.859871,104.350716 
	C42.850811,101.499619 42.823112,99.547188 42.795414,97.594765 
	C43.117165,94.656380 43.438911,91.718002 43.766975,88.381424 
	C45.623489,83.196945 46.942352,78.113518 49.422089,73.679291 
	C57.315334,59.564705 68.865349,49.616955 84.804688,44.595181 
	C86.847969,44.072662 88.574287,43.691006 90.901871,43.150002 
	C91.676636,42.976738 91.850113,42.962830 92.023598,42.948921 
	C92.023598,42.948921 92.495621,43.010048 93.088379,42.957779 
	C94.156044,42.845901 94.630943,42.786285 95.105850,42.726673 
	C95.736298,42.756744 96.366753,42.786816 97.804161,42.855232 
	C100.575294,42.847450 102.539474,42.801327 104.503647,42.755203 
	C105.122231,42.771832 105.740814,42.788456 106.667969,42.781540 
M92.293800,49.563293 
	C89.524155,50.092037 86.754509,50.620781 83.276047,51.203533 
	C67.235092,57.371361 56.121258,68.368813 50.828808,84.829437 
	C50.137157,86.980637 50.855232,89.585098 50.361397,92.261360 
	C46.920685,97.266953 47.343102,102.572792 48.975067,108.754997 
	C49.324757,110.504173 49.674442,112.253349 49.993519,114.770493 
	C55.786583,134.851944 68.895912,147.341019 89.546745,152.708633 
	C90.051773,152.747223 90.556793,152.785828 91.687134,152.921494 
	C92.106300,152.880341 92.525459,152.839188 93.372421,152.966782 
	C93.656075,153.082047 93.935501,153.206772 95.022240,153.723862 
	C98.018471,153.715317 101.014709,153.706772 104.682877,153.851440 
	C112.044556,151.680573 120.041229,150.680328 126.639137,147.101425 
	C141.561584,139.007004 151.115173,126.448166 153.465073,108.543198 
	C153.536728,107.684128 153.608368,106.825050 153.878006,105.085457 
	C153.277298,99.390305 152.676575,93.695160 152.064713,87.227684 
	C146.520050,68.070404 134.138962,55.749218 114.249016,50.005409 
	C112.497185,49.697651 110.745346,49.389896 108.206184,48.914009 
	C104.168098,48.708622 100.130020,48.503235 95.499733,48.328987 
	C94.655586,48.802643 93.811440,49.276299 92.293800,49.563293 
z"/>
<path fill="#E7EAED" opacity="1.000000" stroke="none" 
	d="
M111.905525,42.765625 
	C111.459732,43.212891 111.036896,43.177654 110.305016,43.061119 
	C110.003494,42.545475 110.011017,42.111134 110.014938,40.890232 
	C110.032043,36.743649 110.052750,33.383617 110.073456,30.023590 
	C110.313721,29.839474 110.530548,29.630989 110.858673,29.217556 
	C111.305084,33.452358 111.616783,37.867744 111.905525,42.765625 
z"/>
<path fill="#F3F4F5" opacity="1.000000" stroke="none" 
	d="
M127.001892,23.460735 
	C127.005623,26.126757 127.005623,28.389410 127.005623,30.652061 
	C126.560966,30.657181 126.116318,30.662300 125.671661,30.667419 
	C125.671661,27.232561 125.671661,23.797705 125.671661,20.362846 
	C125.857666,20.308199 126.043671,20.253551 126.229675,20.198904 
	C126.485840,21.151724 126.741997,22.104544 127.001892,23.460735 
z"/>
<path fill="#F3F4F5" opacity="1.000000" stroke="none" 
	d="
M121.993851,25.737902 
	C121.992828,23.313957 121.992828,21.303892 121.992828,19.293827 
	C122.489304,19.304090 122.985779,19.314354 123.482254,19.324617 
	C123.482254,22.732191 123.482254,26.139765 123.482254,29.547338 
	C123.182991,29.624687 122.883728,29.702036 122.584457,29.779385 
	C122.387932,28.570183 122.191406,27.360983 121.993851,25.737902 
z"/>
<path fill="#E7EAED" opacity="1.000000" stroke="none" 
	d="
M159.435242,111.988907 
	C159.065948,110.527924 159.162216,109.066872 159.208313,107.283020 
	C163.919388,107.492905 168.680634,108.025589 173.728638,108.824570 
	C174.012741,109.502914 174.010086,109.914963 174.008362,110.636024 
	C169.306458,111.292976 164.603638,111.640907 159.435242,111.988907 
z"/>
<path fill="#F3F4F5" opacity="1.000000" stroke="none" 
	d="
M114.023537,174.021088 
	C114.125336,169.455170 114.227142,164.889236 114.665466,160.128082 
	C118.612366,163.328262 116.787285,167.355713 116.165688,171.844543 
	C116.016212,172.463257 116.016739,172.940170 115.766655,173.074890 
	C115.018898,173.480103 114.521217,173.750595 114.023537,174.021088 
z"/>
<path fill="#FBFCFC" opacity="1.000000" stroke="none" 
	d="
M130.007202,182.571686 
	C129.233612,183.349289 128.458069,183.659851 127.350418,184.010010 
	C127.088562,179.259369 127.158813,174.469116 127.229057,169.678864 
	C128.154465,169.681656 129.079865,169.684448 130.005264,169.687241 
	C130.005264,173.826370 130.005264,177.965515 130.007202,182.571686 
z"/>
<path fill="#F8F9FA" opacity="1.000000" stroke="none" 
	d="
M120.997360,171.977341 
	C121.823174,172.210648 123.308151,172.327362 123.373222,172.695221 
	C124.050850,176.526062 125.281914,180.522491 121.360054,183.410706 
	C121.009407,179.388489 121.003380,175.682922 120.997360,171.977341 
z"/>
<path fill="#F3F4F5" opacity="1.000000" stroke="none" 
	d="
M184.104065,126.221703 
	C184.496674,126.674149 184.380524,127.070290 184.109680,127.736191 
	C179.415726,128.005936 174.876434,128.005936 170.337143,128.005936 
	C170.334290,127.392426 170.331451,126.778908 170.328598,126.165398 
	C174.750824,126.165398 179.173065,126.165398 184.104065,126.221703 
z"/>
<path fill="#F3F4F5" opacity="1.000000" stroke="none" 
	d="
M120.663567,171.979965 
	C121.003380,175.682922 121.009407,179.388489 121.022469,183.557037 
	C121.021721,184.447342 121.013924,184.874710 121.006958,185.622803 
	C120.594070,186.042923 120.180351,186.142303 119.411415,185.945099 
	C119.037598,185.432220 119.018997,185.215912 118.999161,184.537399 
	C118.996803,180.048615 118.995667,176.022049 118.994537,171.995468 
	C119.439613,171.991180 119.884697,171.986893 120.663567,171.979965 
z"/>
<path fill="#F8F9FA" opacity="1.000000" stroke="none" 
	d="
M118.622406,171.995422 
	C118.995667,176.022049 118.996803,180.048615 118.748215,184.421478 
	C118.007530,184.517273 117.516548,184.266800 117.017120,183.564240 
	C116.678024,179.721481 116.347382,176.330826 116.016739,172.940170 
	C116.016739,172.940170 116.016212,172.463257 116.017647,172.224609 
	C116.762810,171.989090 117.506546,171.992233 118.622406,171.995422 
z"/>
<path fill="#F7F8F9" opacity="1.000000" stroke="none" 
	d="
M72.011642,173.359451 
	C72.692200,171.799637 73.366890,170.665146 74.041573,169.530640 
	C75.009109,170.683212 76.628944,171.741379 76.812225,173.007477 
	C77.230209,175.894836 76.944183,178.884125 76.944183,182.597900 
	C70.346710,181.561691 72.567230,176.929688 72.011642,173.359451 
z"/>
<path fill="#F3F4F5" opacity="1.000000" stroke="none" 
	d="
M79.989792,178.093048 
	C80.104546,175.829712 80.219421,173.998306 80.334290,172.166901 
	C80.904724,172.195236 81.475159,172.223587 82.045593,172.251938 
	C82.045593,176.253815 82.045593,180.255707 82.045593,184.257584 
	C81.589806,184.294556 81.134026,184.331512 80.678238,184.368484 
	C80.448799,182.420639 80.219353,180.472809 79.989792,178.093048 
z"/>
<path fill="#FBFCFC" opacity="1.000000" stroke="none" 
	d="
M89.689651,172.022461 
	C90.298965,172.778336 90.584114,173.556076 90.900246,174.642700 
	C89.784538,174.428925 88.637840,173.906281 87.248978,173.182281 
	C87.793045,172.668716 88.579269,172.356522 89.689651,172.022461 
z"/>
<path fill="#F3F4F5" opacity="1.000000" stroke="none" 
	d="
M85.268440,158.578827 
	C85.306145,158.592834 85.126755,158.934235 85.126755,158.934235 
	C85.126755,158.934235 85.078850,158.694305 85.129066,158.598633 
	C85.179283,158.502975 85.230736,158.564819 85.268440,158.578827 
z"/>
<path fill="#F8F9FA" opacity="1.000000" stroke="none" 
	d="
M77.610893,19.034206 
	C78.004150,23.022760 78.005531,27.042442 78.008926,31.523563 
	C75.822983,32.141678 73.036957,34.455845 72.090500,30.243473 
	C70.649315,23.829195 72.178940,20.436745 77.610893,19.034206 
z"/>
<path fill="#F3F4F5" opacity="1.000000" stroke="none" 
	d="
M82.999458,31.456913 
	C83.663330,31.863466 84.819305,32.682735 84.902206,33.599087 
	C85.156311,36.407715 84.998642,39.253601 85.000702,42.543262 
	C84.333801,39.305695 83.667290,35.609859 82.999458,31.456913 
z"/>
<path fill="#E7EAED" opacity="1.000000" stroke="none" 
	d="
M43.060936,113.205826 
	C43.575138,113.259674 43.659599,113.412857 43.648170,113.498856 
	C39.087601,113.584862 34.538456,113.584862 29.989309,113.584862 
	C29.984962,113.440567 29.980614,113.296272 29.976267,113.151978 
	C34.166424,113.151978 38.356579,113.151978 43.060936,113.205826 
z"/>
<path fill="#E7EAED" opacity="1.000000" stroke="none" 
	d="
M42.611168,111.016304 
	C43.082298,111.015587 43.239330,111.431175 43.257393,111.652168 
	C38.747471,111.722427 34.219482,111.571693 29.336298,111.210289 
	C33.367409,111.005417 37.753723,111.011215 42.611168,111.016304 
z"/>
<path fill="#A3B1BF" opacity="1.000000" stroke="none" 
	d="
M160.407440,103.767899 
	C159.945221,102.174110 159.946732,100.659210 159.940689,98.766670 
	C164.323792,98.272339 168.714447,98.155632 173.571548,98.000175 
	C174.018646,99.697105 173.999283,101.432800 174.008118,103.601456 
	C169.647934,103.971870 165.259537,103.909325 160.407440,103.767899 
z"/>
<path fill="#A3B1BF" opacity="1.000000" stroke="none" 
	d="
M104.408905,42.315517 
	C102.539474,42.801327 100.575294,42.847450 98.120834,42.850700 
	C97.751060,39.707146 98.181671,36.579781 97.917671,33.512196 
	C97.544319,29.173897 99.146141,27.365221 103.937820,27.988167 
	C104.380394,32.589550 104.347282,37.232689 104.408905,42.315517 
z"/>
<path fill="#D9DBE0" opacity="1.000000" stroke="none" 
	d="
M92.011917,42.486656 
	C91.850113,42.962830 91.676636,42.976738 91.242157,42.984280 
	C91.113602,38.128029 91.246025,33.278145 91.691437,28.197819 
	C92.003036,32.653046 92.001640,37.338715 92.011917,42.486656 
z"/>
<path fill="#D9DBE0" opacity="1.000000" stroke="none" 
	d="
M95.072342,42.283993 
	C94.630943,42.786285 94.156044,42.845901 93.322098,42.912903 
	C92.963051,38.710480 92.963051,34.500671 92.963051,30.290863 
	C93.654976,30.276745 94.346901,30.262629 95.038826,30.248510 
	C95.038826,34.112778 95.038826,37.977043 95.072342,42.283993 
z"/>
<path fill="#A3B1BF" opacity="1.000000" stroke="none" 
	d="
M42.353386,97.694717 
	C42.823112,99.547188 42.850811,101.499619 42.832855,103.941948 
	C38.158318,104.582703 33.529438,104.733559 28.437069,104.856819 
	C27.973583,104.829224 28.016230,104.447083 28.019222,104.255020 
	C28.015785,102.320488 28.009356,100.578026 27.977987,98.401329 
	C32.605820,97.909622 37.258587,97.852142 42.353386,97.694717 
z"/>
<path fill="#F3F4F5" opacity="1.000000" stroke="none" 
	d="
M86.823303,19.214787 
	C86.908043,22.269886 86.908043,24.982996 86.908043,27.696104 
	C86.292976,27.682388 85.677910,27.668673 85.062843,27.654957 
	C85.232979,24.598286 85.400902,21.541477 85.590645,18.486023 
	C85.594093,18.430471 85.897125,18.311880 85.992599,18.359266 
	C86.260277,18.492121 86.492401,18.696581 86.823303,19.214787 
z"/>
<path fill="#E6E6E7" opacity="1.000000" stroke="none" 
	d="
M108.992729,160.347626 
	C109.771843,159.560181 110.551041,159.249756 111.659241,158.959991 
	C111.661697,164.698395 111.335152,170.416153 110.999954,176.558075 
	C110.322777,175.089264 109.249405,173.232803 109.074463,171.295258 
	C108.761665,167.830841 108.990440,164.317505 108.992729,160.347626 
z"/>
<path fill="#FBFCFC" opacity="1.000000" stroke="none" 
	d="
M94.167213,159.587006 
	C95.312843,159.520599 96.463745,159.615967 97.944427,159.830231 
	C98.082558,164.144104 97.890915,168.339096 97.449387,172.884796 
	C96.264824,169.087006 95.330147,164.938522 94.267990,160.430481 
	C94.140503,160.070923 94.172493,159.748779 94.167213,159.587006 
z"/>
<path fill="#E6E6E7" opacity="1.000000" stroke="none" 
	d="
M115.766655,173.074890 
	C116.347382,176.330826 116.678024,179.721481 117.008179,183.916565 
	C117.023781,185.426163 117.039879,186.131332 117.055969,186.836517 
	C116.574211,186.849396 116.092445,186.862274 115.250534,186.838348 
	C114.597954,182.843704 114.305534,178.885880 114.018326,174.474579 
	C114.521217,173.750595 115.018898,173.480103 115.766655,173.074890 
z"/>
<path fill="#FDFDFE" opacity="1.000000" stroke="none" 
	d="
M109.814407,30.123177 
	C110.052750,33.383617 110.032043,36.743649 110.011230,40.564411 
	C109.859207,37.424355 109.707291,33.823559 109.814407,30.123177 
z"/>
<path fill="#FEFEFE" opacity="1.000000" stroke="none" 
	d="
M117.337280,186.871216 
	C117.039879,186.131332 117.023781,185.426163 117.016624,184.368652 
	C117.516548,184.266800 118.007530,184.517273 118.749451,184.883667 
	C119.018997,185.215912 119.037598,185.432220 119.092163,185.973389 
	C118.624947,186.500809 118.121773,186.703354 117.337280,186.871216 
z"/>
<path fill="#FDFDFE" opacity="1.000000" stroke="none" 
	d="
M152.955688,108.953278 
	C151.115173,126.448166 141.561584,139.007004 126.639137,147.101425 
	C120.041229,150.680328 112.044556,151.680573 104.346069,153.355957 
	C104.388580,150.207382 104.767899,147.554306 105.365692,144.580292 
	C105.608810,141.799271 105.633469,139.339203 105.974823,136.661835 
	C116.170967,134.582733 124.317215,129.721558 130.044724,121.507965 
	C132.662140,117.754425 134.127792,113.197716 136.427216,109.005280 
	C137.153824,109.004745 137.569046,109.004211 138.383240,109.003540 
	C140.532516,108.668839 142.282822,108.334267 144.274170,108.000397 
	C144.515228,108.001091 144.997360,108.001183 145.420868,107.999802 
	C148.214813,108.316711 150.585251,108.634995 152.955688,108.953278 
z"/>
<path fill="#FDFDFE" opacity="1.000000" stroke="none" 
	d="
M89.106392,152.460938 
	C68.895912,147.341019 55.786583,134.851944 50.438843,114.386215 
	C53.436245,113.436020 57.160797,115.645195 58.173950,110.784164 
	C58.572144,110.047295 58.785793,109.526268 59.415443,108.998322 
	C61.216999,108.987724 62.602558,108.984055 64.243927,109.166595 
	C65.097427,109.543312 65.695122,109.733818 66.477448,110.213760 
	C70.793953,123.801964 79.743942,132.129913 93.002266,136.455658 
	C92.990112,142.190948 92.967369,147.494507 92.944626,152.798050 
	C92.525459,152.839188 92.106300,152.880341 91.369705,152.442963 
	C90.853119,149.502640 90.653969,147.040863 90.454819,144.579071 
	C89.658897,144.664413 88.862968,144.749756 88.067047,144.835098 
	C88.413498,147.377045 88.759941,149.918991 89.106392,152.460938 
z"/>
<path fill="#FDFDFE" opacity="1.000000" stroke="none" 
	d="
M50.920357,91.979614 
	C50.855232,89.585098 50.137157,86.980637 50.828808,84.829437 
	C56.121258,68.368813 67.235092,57.371361 83.629349,51.601944 
	C84.130844,54.284824 84.279037,56.569290 84.427238,58.853760 
	C84.808899,58.831375 85.190559,58.808990 85.572220,58.786610 
	C85.834908,56.843239 86.097603,54.899868 86.260483,53.694893 
	C87.967743,56.577942 89.843964,59.746292 92.002846,63.391987 
	C92.002846,61.267395 92.002846,59.620480 92.208527,58.285503 
	C92.930923,61.024857 93.447639,63.452263 93.630981,66.025047 
	C79.045258,69.869774 70.727966,79.597656 65.592422,93.006836 
	C60.405510,92.663185 55.662933,92.321396 50.920357,91.979614 
z"/>
<path fill="#FEFEFE" opacity="1.000000" stroke="none" 
	d="
M115.012222,50.173344 
	C134.138962,55.749218 146.520050,68.070404 151.651215,87.613228 
	C149.191498,88.278702 145.592636,88.097702 145.350525,88.913223 
	C143.757309,94.279839 139.615585,92.762543 135.925629,92.662849 
	C132.085785,80.384102 124.444138,72.021309 112.963737,66.697983 
	C113.651947,60.892574 114.332085,55.532959 115.012222,50.173344 
z"/>
<path fill="#FBFCFC" opacity="1.000000" stroke="none" 
	d="
M136.077499,92.996719 
	C139.615585,92.762543 143.757309,94.279839 145.350525,88.913223 
	C145.592636,88.097702 149.191498,88.278702 151.656799,87.999390 
	C152.676575,93.695160 153.277298,99.390305 153.362762,105.527222 
	C150.230804,106.646385 147.614075,107.323792 144.997360,108.001190 
	C144.997360,108.001183 144.515228,108.001091 143.873505,107.998230 
	C141.482605,108.331467 139.733429,108.667572 137.984253,109.003677 
	C137.569046,109.004211 137.153824,109.004745 136.403839,108.538361 
	C136.071869,103.046532 136.074677,98.021622 136.077499,92.996719 
z"/>
<path fill="#FBFCFC" opacity="1.000000" stroke="none" 
	d="
M50.640877,92.120483 
	C55.662933,92.321396 60.405510,92.663185 65.587006,93.474411 
	C66.114883,99.270676 66.203850,104.597496 66.292816,109.924332 
	C65.695122,109.733818 65.097427,109.543312 63.978004,108.987152 
	C61.970661,108.749413 60.485054,108.877327 58.999443,109.005241 
	C58.785793,109.526268 58.572144,110.047295 57.923882,110.528503 
	C54.705959,109.654259 51.922642,108.819832 49.139328,107.985397 
	C47.343102,102.572792 46.920685,97.266953 50.640877,92.120483 
M61.945408,105.855499 
	C62.043602,105.740089 62.229252,105.614716 62.217533,105.511826 
	C62.203346,105.387276 62.024471,105.185562 61.912960,105.182930 
	C60.850590,105.157890 59.787395,105.167984 58.724438,105.167984 
	C58.725021,105.432755 58.725601,105.697525 58.726185,105.962296 
	C59.642166,105.962296 60.558151,105.962296 61.945408,105.855499 
M61.494198,96.011162 
	C60.552849,96.054695 59.611504,96.098228 58.670155,96.141762 
	C58.738853,96.476280 58.807549,96.810799 58.876247,97.145317 
	C59.905251,96.802574 60.934254,96.459831 61.494198,96.011162 
z"/>
<path fill="#FEFEFE" opacity="1.000000" stroke="none" 
	d="
M96.091934,48.297848 
	C100.130020,48.503235 104.168098,48.708622 108.598679,49.400955 
	C108.826744,52.624035 110.027710,55.932369 105.746620,57.351093 
	C105.323074,59.831173 105.144325,62.006050 104.963501,64.397812 
	C104.958878,64.904068 104.968658,65.193024 104.582008,65.558884 
	C103.065224,65.584442 101.957214,65.532684 100.555786,65.356827 
	C99.187439,65.075035 98.112511,64.917351 97.038498,64.578987 
	C97.039421,64.398308 97.020844,64.037415 97.034744,63.619370 
	C96.699783,61.126343 96.350937,59.051361 96.006248,56.536903 
	C96.037582,53.497570 96.064758,50.897709 96.091934,48.297848 
z"/>
<path fill="#FBFCFC" opacity="1.000000" stroke="none" 
	d="
M105.147217,144.901230 
	C104.767899,147.554306 104.388580,150.207382 104.010101,153.279343 
	C101.014709,153.706772 98.018471,153.715317 94.951797,153.217560 
	C95.278336,150.017563 95.675308,147.323883 96.301254,144.344940 
	C96.555771,141.627533 96.581322,139.195374 97.087662,136.755905 
	C100.123940,136.793060 102.679420,136.837509 105.187561,137.330444 
	C105.142548,140.153030 105.144882,142.527130 105.147217,144.901230 
z"/>
<path fill="#F8F9FA" opacity="1.000000" stroke="none" 
	d="
M104.990776,65.481560 
	C104.968658,65.193024 104.958878,64.904068 105.196373,64.062340 
	C105.618011,61.355297 105.804710,59.200596 105.991409,57.045895 
	C110.027710,55.932369 108.826744,52.624035 108.992340,49.485020 
	C110.745346,49.389896 112.497185,49.697651 114.630615,50.089378 
	C114.332085,55.532959 113.651947,60.892574 112.560333,66.660553 
	C109.762833,66.539795 107.376808,66.010674 104.990776,65.481560 
z"/>
<path fill="#F3F4F5" opacity="1.000000" stroke="none" 
	d="
M92.002846,57.973560 
	C92.002846,59.620480 92.002846,61.267395 92.002846,63.391987 
	C89.843964,59.746292 87.967743,56.577942 86.260483,53.694893 
	C86.097603,54.899868 85.834908,56.843239 85.572220,58.786610 
	C85.190559,58.808990 84.808899,58.831375 84.427238,58.853760 
	C84.279037,56.569290 84.130844,54.284824 83.983749,51.574944 
	C86.754509,50.620781 89.524155,50.092037 92.636261,50.089760 
	C92.653435,53.068672 92.328140,55.521118 92.002846,57.973560 
z"/>
<path fill="#E7EAED" opacity="1.000000" stroke="none" 
	d="
M92.208527,58.285503 
	C92.328140,55.521118 92.653435,53.068672 92.973007,50.183094 
	C93.811440,49.276299 94.655586,48.802643 95.795837,48.313416 
	C96.064758,50.897709 96.037582,53.497570 96.003677,56.952797 
	C96.338242,59.884579 96.679543,61.960995 97.020844,64.037415 
	C97.020844,64.037415 97.039421,64.398308 97.022507,64.858856 
	C97.004295,65.505127 97.002998,65.690865 96.621338,65.880615 
	C95.482109,65.882973 94.723228,65.881317 93.964355,65.879669 
	C93.447639,63.452263 92.930923,61.024857 92.208527,58.285503 
z"/>
<path fill="#E7EAED" opacity="1.000000" stroke="none" 
	d="
M96.072296,144.630203 
	C95.675308,147.323883 95.278336,150.017563 94.546036,153.026108 
	C93.935501,153.206772 93.656075,153.082047 93.158524,152.882416 
	C92.967369,147.494507 92.990112,142.190948 93.376930,136.442627 
	C94.694427,136.244995 95.647865,136.492126 96.519371,137.189819 
	C96.315727,139.970337 96.194008,142.300278 96.072296,144.630203 
z"/>
<path fill="#F3F4F5" opacity="1.000000" stroke="none" 
	d="
M49.057198,108.370193 
	C51.922642,108.819832 54.705959,109.654259 57.739338,110.744347 
	C57.160797,115.645195 53.436245,113.436020 50.454147,114.002228 
	C49.674442,112.253349 49.324757,110.504173 49.057198,108.370193 
z"/>
<path fill="#E6E6E7" opacity="1.000000" stroke="none" 
	d="
M89.326569,152.584778 
	C88.759941,149.918991 88.413498,147.377045 88.067047,144.835098 
	C88.862968,144.749756 89.658897,144.664413 90.454819,144.579071 
	C90.653969,147.040863 90.853119,149.502640 91.057045,152.394440 
	C90.556793,152.785828 90.051773,152.747223 89.326569,152.584778 
z"/>
<path fill="#F3F4F5" opacity="1.000000" stroke="none" 
	d="
M145.420868,107.999809 
	C147.614075,107.323792 150.230804,106.646385 153.263763,105.967484 
	C153.608368,106.825050 153.536728,107.684128 153.210388,108.748238 
	C150.585251,108.634995 148.214813,108.316711 145.420868,107.999809 
z"/>
<path fill="#9CA3AF" opacity="1.000000" stroke="none" 
	d="
M96.601295,136.739243 
	C95.647865,136.492126 94.694427,136.244995 93.366333,136.010880 
	C79.743942,132.129913 70.793953,123.801964 66.477448,110.213760 
	C66.203850,104.597496 66.114883,99.270676 66.031334,93.476273 
	C70.727966,79.597656 79.045258,69.869774 93.630981,66.025047 
	C94.723228,65.881317 95.482109,65.882973 96.827103,66.158760 
	C98.558548,66.115578 99.703873,65.798248 100.849197,65.480919 
	C101.957214,65.532684 103.065224,65.584442 104.582008,65.558884 
	C107.376808,66.010674 109.762833,66.539795 112.552261,67.106339 
	C124.444138,72.021309 132.085785,80.384102 135.925629,92.662849 
	C136.074677,98.021622 136.071869,103.046532 136.092438,108.538353 
	C134.127792,113.197716 132.662140,117.754425 130.044724,121.507965 
	C124.317215,129.721558 116.170967,134.582733 105.869072,136.646255 
	C105.446617,136.847946 105.234909,136.881973 105.234909,136.881958 
	C102.679420,136.837509 100.123940,136.793060 97.083984,136.760040 
	C96.599518,136.771500 96.601295,136.739243 96.601295,136.739243 
z"/>
<path fill="#B8BCC1" opacity="1.000000" stroke="none" 
	d="
M105.187561,137.330444 
	C105.234909,136.881973 105.446617,136.847946 105.552368,136.863525 
	C105.633469,139.339203 105.608810,141.799271 105.365692,144.580292 
	C105.144882,142.527130 105.142548,140.153030 105.187561,137.330444 
z"/>
<path fill="#F3F4F5" opacity="1.000000" stroke="none" 
	d="
M138.383240,109.003540 
	C139.733429,108.667572 141.482605,108.331467 143.632446,107.997528 
	C142.282822,108.334267 140.532516,108.668839 138.383240,109.003540 
z"/>
<path fill="#E7EAED" opacity="1.000000" stroke="none" 
	d="
M59.415443,108.998322 
	C60.485054,108.877327 61.970661,108.749413 63.722191,108.800949 
	C62.602558,108.984055 61.216999,108.987724 59.415443,108.998322 
z"/>
<path fill="#E7EAED" opacity="1.000000" stroke="none" 
	d="
M61.709770,105.908897 
	C60.558151,105.962296 59.642166,105.962296 58.726185,105.962296 
	C58.725601,105.697525 58.725021,105.432755 58.724438,105.167984 
	C59.787395,105.167984 60.850590,105.157890 61.912960,105.182930 
	C62.024471,105.185562 62.203346,105.387276 62.217533,105.511826 
	C62.229252,105.614716 62.043602,105.740089 61.709770,105.908897 
z"/>
<path fill="#E7EAED" opacity="1.000000" stroke="none" 
	d="
M61.728729,96.064125 
	C60.934254,96.459831 59.905251,96.802574 58.876247,97.145317 
	C58.807549,96.810799 58.738853,96.476280 58.670155,96.141762 
	C59.611504,96.098228 60.552849,96.054695 61.728729,96.064125 
z"/>
<path fill="#D9DBE0" opacity="1.000000" stroke="none" 
	d="
M100.555786,65.356827 
	C99.703873,65.798248 98.558548,66.115578 97.207458,66.154755 
	C97.002998,65.690865 97.004295,65.505127 97.021591,65.039536 
	C98.112511,64.917351 99.187439,65.075035 100.555786,65.356827 
z"/>
<path fill="#D9DBE0" opacity="1.000000" stroke="none" 
	d="
M97.034744,63.619370 
	C96.679543,61.960995 96.338242,59.884579 95.999512,57.392265 
	C96.350937,59.051361 96.699783,61.126343 97.034744,63.619370 
z"/>
<path fill="#D9DBE0" opacity="1.000000" stroke="none" 
	d="
M105.746613,57.351093 
	C105.804710,59.200596 105.618011,61.355297 105.198441,63.845467 
	C105.144325,62.006050 105.323074,59.831173 105.746613,57.351093 
z"/>
<path fill="#B8BCC1" opacity="1.000000" stroke="none" 
	d="
M96.519371,137.189819 
	C96.601295,136.739243 96.599518,136.771500 96.603195,136.767365 
	C96.581322,139.195374 96.555771,141.627533 96.301254,144.344940 
	C96.194008,142.300278 96.315727,139.970337 96.519371,137.189819 
z"/>
</svg>